<path d="M100.678795,188.51118 L100.092593,189.183416 L99.5063899,188.51118 C95.1778802,183.547398 93,179.825203 93,177.207407 C93,173.229972 96.1722938,170 100.092593,170 C104.012891,170 107.185185,173.229972 107.185185,177.207407 C107.185185,179.825203 105.007305,183.547398 100.678795,188.51118 Z M105.62963,177.207407 C105.62963,174.08287 103.147446,171.555556 100.092593,171.555556 C97.0377396,171.555556 94.5555556,174.08287 94.5555556,177.207407 C94.5555556,179.220604 96.3934211,182.460264 100.092593,186.808384 C103.791764,182.460264 105.62963,179.220604 105.62963,177.207407 Z M100.092593,179.018519 C98.7118807,179.018519 97.5925926,177.89923 97.5925926,176.518519 C97.5925926,175.137807 98.7118807,174.018519 100.092593,174.018519 C101.473304,174.018519 102.592593,175.137807 102.592593,176.518519 C102.592593,177.89923 101.473304,179.018519 100.092593,179.018519 Z M100.092593,177.462963 C100.614195,177.462963 101.037037,177.040121 101.037037,176.518519 C101.037037,175.996916 100.614195,175.574074 100.092593,175.574074 C99.5709903,175.574074 99.1481481,175.996916 99.1481481,176.518519 C99.1481481,177.040121 99.5709903,177.462963 100.092593,177.462963 Z" id="01-Icon/24-40-pin"></path><svg width="24" height="24" viewBox="0 0 24 24" fill="none" xmlns="http://www.w3.org/2000/svg">
  <path d="M12 2C8.13 2 5 5.13 5 9C5 14.25 12 22 12 22C12 22 19 14.25 19 9C19 5.13 15.87 2 12 2ZM12 11.5C10.62 11.5 9.5 10.38 9.5 9C9.5 7.62 10.62 6.5 12 6.5C13.38 6.5 14.5 7.62 14.5 9C14.5 10.38 13.38 11.5 12 11.5Z" fill="currentColor"/>
</svg>